<?xml version="1.0" encoding="UTF-8"?>
<svg version="1.1" xmlns="http://www.w3.org/2000/svg" width="1080" height="1080">
<path d="M0 0 C356.4 0 712.8 0 1080 0 C1080 356.4 1080 712.8 1080 1080 C723.6 1080 367.2 1080 0 1080 C0 723.6 0 367.2 0 0 Z " fill="#FEFEFE" transform="translate(0,0)"/>
<path d="M0 0 C48.51 0 97.02 0 147 0 C160.66043953 43.79146614 160.66043953 43.79146614 164.609375 56.46875 C164.88009575 57.337845 165.1508165 58.20694 165.42974091 59.10237122 C170.86796422 76.56269223 176.28838181 94.02846237 181.6730957 111.50537109 C182.34582375 113.68848955 183.01859433 115.8715949 183.69140625 118.0546875 C184.02711136 119.14405609 184.36281647 120.23342468 184.70869446 121.35580444 C187.13754706 129.22817749 189.58713216 137.09392414 192.04396057 144.95759583 C193.70759412 150.28312246 195.36571372 155.61036204 197.0227232 160.937953 C198.16825021 164.61979198 199.31642958 168.30075061 200.47177124 171.97952271 C206.0098483 189.61962303 211.02629108 207.25498764 215.33110046 225.24360657 C216.48628421 230.00387433 217.76428009 234.72860382 219.04296875 239.45703125 C220.40836773 244.51179401 221.73719934 249.57602549 223.0637207 254.64111328 C224.17023514 258.86272036 225.28930755 263.08037119 226.4296875 267.29296875 C226.66115479 268.15438477 226.89262207 269.01580078 227.13110352 269.90332031 C227.57550553 271.55609454 228.02373161 273.2078467 228.47631836 274.85839844 C229.42130868 278.38849529 230 281.3199319 230 285 C230.66 285 231.32 285 232 285 C232.21914063 284.10023438 232.43828125 283.20046875 232.6640625 282.2734375 C236.80755141 265.40431699 241.47522196 248.69353602 246.39379883 232.03540039 C248.39713341 225.20091561 250.23994184 218.33826967 252 211.4375 C255.63108697 197.25033318 259.8501009 183.24032814 264.5625 169.375 C266.87472259 162.5672102 268.82723771 155.67850032 270.76977539 148.75732422 C272.56427732 142.40666301 274.58255623 136.1817587 276.71875 129.9375 C278.30726982 125.17194054 279.64302848 120.33550257 281 115.5 C283.0407889 108.22774717 285.27379924 101.08427914 287.71875 93.9375 C289.30726982 89.17194054 290.64302848 84.33550257 292 79.5 C293.69901239 73.44565129 295.46445225 67.45006264 297.5 61.5 C299.83173534 54.67668473 301.81208416 47.77859966 303.76733398 40.83911133 C306.02701156 32.83914133 308.48727918 24.9247349 311 17 C312.65 11.72 314.3 6.44 316 1 C362.53 1 409.06 1 457 1 C457 131.02 457 261.04 457 395 C427.3 395 397.6 395 367 395 C366.97783253 365.08926809 366.95941611 335.17854084 366.94893467 305.26780298 C366.9476844 301.71295913 366.94639004 298.1581153 366.94506836 294.60327148 C366.94467489 293.54199533 366.94467489 293.54199533 366.94427348 292.45927925 C366.9399569 281.09807045 366.93209217 269.73686686 366.9228472 258.37566113 C366.91339775 246.66289459 366.90792089 234.95013073 366.90591151 223.23736054 C366.90467873 216.68173387 366.90165935 210.12611675 366.89426994 203.5704937 C366.85433552 166.68161239 367.15163218 129.84937551 369 93 C368.34 93 367.68 93 367 93 C366.690625 94.918125 366.690625 94.918125 366.375 96.875 C365.03295306 103.63316495 362.73049476 110.04428617 360.5078125 116.55078125 C359.26784053 120.18081071 358.10791632 123.82711774 357 127.5 C355.1857167 133.48713488 353.20605776 139.411763 351.21313477 145.34106445 C349.38444255 150.79937229 347.66614322 156.28388439 345.99609375 161.79296875 C344.68161412 166.02507767 343.26709073 170.22188527 341.85302734 174.42138672 C340.52927698 178.36833021 339.2701887 182.32863065 338.0625 186.3125 C336.2248609 192.36108539 334.22720138 198.34886641 332.21337891 204.34033203 C330.38460744 209.79888519 328.66621806 215.28363753 326.99609375 220.79296875 C325.68161412 225.02507767 324.26709073 229.22188527 322.85302734 233.42138672 C321.52927698 237.36833021 320.2701887 241.32863065 319.0625 245.3125 C317.46412523 250.57354732 315.75162189 255.78861239 314 261 C312.26936688 266.14904864 310.57552735 271.30075973 309 276.5 C307.1850448 282.48935215 305.20455684 288.41614523 303.2109375 294.34765625 C301.74768874 298.7152321 300.33596005 303.09133184 299 307.5 C297.1850448 313.48935215 295.20455684 319.41614523 293.2109375 325.34765625 C291.74768874 329.7152321 290.33596005 334.09133184 289 338.5 C287.1857167 344.48713488 285.20605776 350.411763 283.21313477 356.34106445 C281.38796452 361.78885985 279.67097715 367.26209448 278.0078125 372.76171875 C276.44952351 377.76877911 274.74835524 382.72616921 273.05078125 387.6875 C271.8566257 391.24210949 271.8566257 391.24210949 271 396 C243.28 396 215.56 396 187 396 C180.32250203 377.08042242 180.32250203 377.08042242 178.4375 370.3125 C176.65087973 364.03032549 174.57201999 357.91688646 172.31811523 351.78417969 C170.93741662 347.91131258 169.78825593 343.98656875 168.65625 340.03515625 C166.25898483 331.78355442 163.66721983 323.60545426 161 315.4375 C160.52670083 313.9818782 160.05362932 312.52618236 159.58076477 311.07041931 C158.57775445 307.98392397 157.57335246 304.89788674 156.56777954 301.81222534 C154.96611269 296.89719278 153.36784795 291.98105813 151.77026367 287.06469727 C151.22349579 285.38215627 150.6767276 283.69961538 150.12995911 282.01707458 C149.85817148 281.18069395 149.58638386 280.34431332 149.30636024 279.48258781 C148.47840632 276.93506037 147.65015235 274.38763065 146.82182312 271.84022522 C141.84667694 256.53845523 136.89481761 241.22921755 131.95160294 225.91710663 C130.8848323 222.61280914 129.81775785 219.30860976 128.75073242 216.00439453 C127.47041968 212.03958482 126.19017285 208.07475384 124.91011047 204.10986328 C121.7331073 194.26941494 118.55443237 184.42950748 115.375 174.58984375 C114.90276549 173.12835198 114.4305314 171.66686008 113.95829773 170.20536804 C112.35982861 165.25837787 110.76134625 160.31139197 109.16281509 155.36442184 C102.76923209 135.57820727 96.38198262 115.78995895 90 96 C89.97443169 101.27139974 89.95675257 106.54276015 89.94506836 111.81420898 C89.94017561 113.59090811 89.93346497 115.36760356 89.92456055 117.14428711 C89.87705513 126.89966388 89.96045161 136.63144533 90.35934544 146.3796072 C91.29050463 169.97230486 91.12920399 193.57630112 91.10139394 217.18304515 C91.09505548 223.49032018 91.09454844 229.79759593 91.09336853 236.10487366 C91.09063384 246.65349658 91.08442838 257.20211321 91.07543945 267.75073242 C91.06620637 278.59741174 91.0591547 289.44408901 91.05493164 300.29077148 C91.05466892 300.96366205 91.05440619 301.63655261 91.05413551 302.3298338 C91.05283011 305.70681236 91.05156649 309.08379094 91.05032361 312.46076953 C91.04002117 340.30718605 91.02162169 368.15358984 91 396 C60.97 396 30.94 396 0 396 C0 265.32 0 134.64 0 0 Z " fill="#83CDF6" transform="translate(519,343)"/>
<path d="M0 0 C33.99 0 67.98 0 103 0 C103.33 57.09 103.66 114.18 104 173 C110.90531458 164.94379965 117.67625131 156.9903068 124.16015625 148.625 C127.18136071 144.75041367 130.27201704 140.9342365 133.375 137.125 C133.91745361 136.45887695 134.45990723 135.79275391 135.01879883 135.10644531 C137.23312569 132.38947182 139.44961687 129.67426773 141.66601562 126.95898438 C147.31367385 120.03711889 152.94346202 113.10722566 158.4375 106.0625 C163.12088988 100.0572272 167.95080973 94.18150514 172.80834961 88.31665039 C176.43689126 83.92598102 180.00158717 79.49489895 183.5 75 C188.23133321 68.92202265 193.10880475 62.97277719 198.01733398 57.03735352 C201.68384643 52.60287925 205.31102259 48.14181665 208.890625 43.63671875 C211.11883446 40.85145693 213.3698553 38.08574447 215.6237793 35.32128906 C221.21555981 28.46272814 226.73837772 21.55889186 232.171875 14.57421875 C232.85199394 13.76827271 232.85199394 13.76827271 233.54585266 12.94604492 C235.12338447 10.95891029 235.12338447 10.95891029 236.33732605 8.2824707 C238.41731115 4.74085606 240.40549824 2.01073489 244 0 C252.317966 -2.10659414 261.3169714 -1.27537815 269.81640625 -1.07421875 C272.35941701 -1.05368716 274.90247146 -1.03803627 277.44554138 -1.02705383 C283.43886901 -0.98944491 289.42952669 -0.90290197 295.4217872 -0.79220945 C302.24863512 -0.6688627 309.07559489 -0.60868056 315.90328133 -0.55355966 C329.93675211 -0.43886265 343.96825351 -0.24563331 358 0 C356.09685015 4.08006684 353.39165575 7.20610735 350.4375 10.5625 C349.34276361 11.82206003 348.24902202 13.08248534 347.15625 14.34375 C346.34800781 15.27574219 346.34800781 15.27574219 345.5234375 16.2265625 C343.4521603 18.63774159 341.44078991 21.09467909 339.4375 23.5625 C335.71248849 28.14972032 331.91023414 32.66438155 328.08349609 37.16650391 C325.20442157 40.55973475 322.36788508 43.9827672 319.5625 47.4375 C315.60556582 52.30049424 311.53564058 57.05700203 307.44384766 61.80615234 C303.64836633 66.22031766 299.94722087 70.70333198 296.27734375 75.22265625 C293.25580056 78.90759143 290.16964049 82.53568321 287.08349609 86.16650391 C284.20442157 89.55973475 281.36788508 92.9827672 278.5625 96.4375 C274.60556582 101.30049424 270.53564058 106.05700203 266.44384766 110.80615234 C262.64836633 115.22031766 258.94722087 119.70333198 255.27734375 124.22265625 C252.25942826 127.90316725 249.177202 131.52709537 246.09448242 135.15332031 C242.36204043 139.55182538 238.70405038 144.0067479 235.0859375 148.5 C232.58107745 151.50207946 229.89675527 154.30209757 227.1171875 157.05078125 C225.44842402 159.96236508 226.23550122 161.78638605 227 165 C228.36800213 167.84237742 228.36800213 167.84237742 230.18359375 170.65625 C230.85455078 171.74550781 231.52550781 172.83476563 232.21679688 173.95703125 C232.95702497 175.13802477 233.69725953 176.31901423 234.4375 177.5 C235.20622282 178.74278226 235.97377853 179.98628711 236.74023438 181.23046875 C237.93938739 183.17692002 239.13916608 185.12294825 240.34237671 187.06689453 C244.25070991 193.38381665 248.07230688 199.75112942 251.8815918 206.12811279 C258.02167641 216.40481302 264.20998706 226.65109168 270.4375 236.875 C277.5157067 248.49902715 284.48391497 260.18618434 291.40600586 271.90380859 C294.89123662 277.7988042 298.39886912 283.67465429 302 289.5 C306.00013267 295.97078833 309.88282577 302.50673427 313.75192261 309.05627441 C321.10646228 321.50157386 328.54374213 333.89346565 336.06274414 346.23999023 C340.67351946 353.8112941 345.25415926 361.39953059 349.79956055 369.01025391 C352.23179242 373.07659504 354.68749793 377.12632643 357.1796875 381.15625 C357.6948291 381.99075684 358.2099707 382.82526367 358.74072266 383.68505859 C359.72344687 385.27375898 360.70991483 386.86015165 361.70068359 388.44384766 C365 393.77935562 365 393.77935562 365 396 C350.03188999 396.35105947 335.06409964 396.61522554 320.09274387 396.77718258 C313.14026007 396.85439917 306.19033955 396.95956464 299.23950195 397.1315918 C292.52831407 397.29760804 285.82033409 397.38430809 279.10700798 397.42315865 C276.54901194 397.45083254 273.9911584 397.50488129 271.43429756 397.58595085 C251.90973507 398.18027007 251.90973507 398.18027007 247.07374573 394.55665398 C244.0016737 391.07416847 242.24252362 387.23363248 240.71373844 382.88569832 C239.61153309 379.97366968 237.99210754 377.40746889 236.3671875 374.76171875 C235.20180932 372.73773614 234.03777509 370.71297919 232.875 368.6875 C231.5716295 366.4231685 230.26824364 364.15884583 228.96484375 361.89453125 C228.3085498 360.75322754 227.65225586 359.61192383 226.97607422 358.43603516 C223.80012226 352.91362993 220.61966752 347.39382559 217.4375 341.875 C216.81665527 340.79822998 216.19581055 339.72145996 215.55615234 338.61206055 C211.39173064 331.39572041 207.20327393 324.19376891 203 317 C196.25298806 305.45270484 189.56660682 293.87097973 182.89111328 282.28222656 C179.76319852 276.85340058 176.63141635 271.42680671 173.5 266 C172.26951242 263.86719836 171.03904375 261.73438582 169.80859375 259.6015625 C168.88409424 257.99909668 168.88409424 257.99909668 167.94091797 256.36425781 C162.29394531 246.57617188 156.64697266 236.78808594 151 227 C146.72211511 231.10097988 142.9876659 235.53138008 139.25 240.125 C138.62802734 240.88490234 138.00605469 241.64480469 137.36523438 242.42773438 C135.57440382 244.61652727 133.78687306 246.8079761 132 249 C130.50026346 250.83354886 129.00030712 252.66691799 127.5 254.5 C126.81292969 255.34046875 126.12585938 256.1809375 125.41796875 257.046875 C122.22075319 260.95171339 119.0179561 264.85192447 115.8125 268.75 C115.22984375 269.45962891 114.6471875 270.16925781 114.046875 270.90039062 C113.48097656 271.58810547 112.91507812 272.27582031 112.33203125 272.984375 C111.83421143 273.58991211 111.3363916 274.19544922 110.82348633 274.81933594 C109 277 109 277 107.53659916 278.35804462 C103.22186499 282.64445201 102.29620277 285.90177844 102.1900177 291.91514587 C102.20223862 292.92791092 102.21445953 293.94067596 102.22705078 294.98413086 C102.21642105 296.06779938 102.20579132 297.1514679 102.19483948 298.26797485 C102.16683401 301.83407304 102.18083707 305.39868632 102.1953125 308.96484375 C102.18406037 311.44349966 102.17017887 313.92214491 102.15377808 316.40077209 C102.11773975 322.91265734 102.11736682 329.42407307 102.12445068 335.93603516 C102.12931584 343.75556686 102.08224865 351.57505283 102.04641724 359.39447784 C101.99699055 371.26322871 102.00385804 383.13075284 102 395 C68.34 395 34.68 395 0 395 C0 264.65 0 134.3 0 0 Z " fill="#5AA5EF" transform="translate(104,343)"/>
</svg>
